<?xml version="1.0" standalone="no"?>
<!DOCTYPE svg PUBLIC "-//W3C//DTD SVG 20010904//EN"
 "http://www.w3.org/TR/2001/REC-SVG-20010904/DTD/svg10.dtd">
<svg version="1.0" xmlns="http://www.w3.org/2000/svg"
 width="256.000000pt" height="256.000000pt" viewBox="0 0 256.000000 256.000000"
 preserveAspectRatio="xMidYMid meet">
<metadata>
Created by potrace 1.14, written by Peter Selinger 2001-2017
</metadata>
<g transform="translate(0.000000,256.000000) scale(0.100000,-0.100000)"
fill="#000000" stroke="none">
<path d="M1224 2483 c-54 -59 -62 -69 -80 -98 -10 -16 -21 -32 -24 -35 -9 -9
-150 -298 -150 -308 0 -6 -3 -12 -8 -14 -9 -3 -82 -154 -82 -169 0 -5 -4 -9
-10 -9 -5 0 -10 -5 -10 -10 0 -20 -48 -59 -86 -69 -22 -6 -183 -31 -359 -57
-175 -25 -327 -50 -336 -55 -10 -5 -21 -19 -25 -31 -3 -12 -13 -28 -20 -36
-20 -19 -18 -116 3 -155 9 -18 116 -132 238 -254 283 -282 280 -276 245 -458
-6 -33 -16 -89 -21 -125 -5 -36 -13 -87 -18 -115 -48 -268 -47 -340 5 -400 25
-29 28 -30 106 -29 44 1 83 5 87 10 8 12 154 84 168 84 6 0 13 3 15 8 2 4 30
20 63 37 33 16 62 32 65 35 3 3 58 32 122 63 132 64 189 73 257 39 20 -10 72
-36 116 -58 44 -21 82 -42 83 -46 2 -5 12 -8 23 -8 10 0 19 -4 19 -9 0 -5 20
-17 45 -28 25 -10 45 -21 45 -25 0 -5 5 -8 12 -8 15 0 161 -72 169 -84 4 -4
43 -9 87 -10 78 -1 81 0 110 31 51 53 51 136 0 418 -5 28 -11 76 -14 108 -4
31 -10 57 -15 57 -5 0 -9 20 -9 45 0 25 -5 65 -12 89 -13 48 1 111 32 150 18
22 278 282 385 384 73 70 115 136 115 183 0 11 -11 37 -25 59 -14 22 -25 44
-25 50 0 27 -62 42 -365 85 -176 25 -338 50 -360 56 -49 14 -69 36 -120 136
-22 43 -43 80 -47 81 -5 2 -8 12 -8 23 0 10 -4 19 -10 19 -5 0 -10 4 -10 9 0
11 -71 163 -80 171 -3 3 -18 34 -35 70 -16 36 -32 67 -35 70 -3 3 -14 19 -24
35 -10 17 -27 39 -37 50 -63 70 -69 75 -99 75 -21 0 -39 -9 -56 -27z m98 -50
c29 -33 259 -504 287 -589 16 -46 27 -84 26 -84 -2 0 -36 55 -75 123 -57 98
-76 123 -93 122 -12 0 -27 -3 -33 -7 -6 -4 -39 -2 -75 3 -98 16 -180 19 -201
8 -12 -7 -24 -7 -31 -1 -26 21 -57 -9 -113 -105 -31 -54 -65 -111 -75 -128
l-18 -30 5 40 c6 40 282 615 311 648 9 9 28 17 43 17 15 0 34 -8 42 -17z m71
-668 c58 -12 177 -57 177 -67 0 -2 -89 -4 -198 -5 -108 -2 -192 1 -185 5 6 4
-17 6 -50 5 -34 -1 -62 -2 -62 -3 0 0 -19 -3 -42 -5 -24 -2 -43 -1 -43 1 0 11
113 56 172 69 83 18 148 18 231 0z m-34 -376 c118 -93 191 -157 191 -168 0 -9
-6 -24 -12 -33 -15 -17 -318 -256 -363 -284 l-29 -19 22 31 c23 30 23 35 22
294 -1 282 -5 310 -50 310 -20 0 -21 -6 -20 -317 1 -175 -3 -317 -7 -316 -8 3
-17 619 -8 640 2 7 17 13 33 13 23 0 74 -35 221 -151z"/>
</g>
</svg>
